Normalized EMG Linear Envelopes
nRows=230
nColumns=4

endheader
time	 med_gas_r	  soleus_r	 tib_ant_r	
3.22681	  0.006723	  0.008252	  0.004026	
3.26008	  0.007399	  0.008012	  0.004439	
3.29335	  0.008008	  0.007820	  0.004840	
3.32661	  0.008484	  0.007702	  0.005201	
3.35988	  0.008778	  0.007683	  0.005496	
3.39315	  0.008884	  0.007775	  0.005720	
3.42641	  0.008844	  0.007965	  0.005888	
3.45968	  0.008724	  0.008206	  0.006023	
3.49294	  0.008574	  0.008433	  0.006130	
3.52621	  0.008411	  0.008582	  0.006188	
3.55948	  0.008222	  0.008609	  0.006172	
3.59274	  0.008005	  0.008504	  0.006075	
3.62601	  0.007781	  0.008295	  0.005921	
3.65927	  0.007591	  0.008033	  0.005756	
3.69254	  0.007471	  0.007774	  0.005620	
3.72581	  0.007431	  0.007566	  0.005530	
3.75907	  0.007452	  0.007437	  0.005485	
3.79234	  0.007504	  0.007399	  0.005476	
3.8256	  0.007562	  0.007447	  0.005497	
3.85887	  0.007604	  0.007567	  0.005547	
3.89214	  0.007620	  0.007736	  0.005618	
3.9254	  0.007603	  0.007928	  0.005688	
3.95867	  0.007559	  0.008111	  0.005727	
3.99194	  0.007513	  0.008266	  0.005712	
4.0252	  0.007503	  0.008388	  0.005650	
4.05847	  0.007560	  0.008493	  0.005572	
4.09173	  0.007686	  0.008598	  0.005517	
4.125	  0.007847	  0.008703	  0.005501	
4.15827	  0.007995	  0.008790	  0.005516	
4.19153	  0.008097	  0.008822	  0.005536	
4.2248	  0.008156	  0.008769	  0.005540	
4.25806	  0.008200	  0.008629	  0.005521	
4.29133	  0.008264	  0.008429	  0.005486	
4.3246	  0.008366	  0.008218	  0.005451	
4.35786	  0.008495	  0.008039	  0.005432	
4.39113	  0.008625	  0.007907	  0.005442	
4.4244	  0.008730	  0.007819	  0.005476	
4.45766	  0.008798	  0.007765	  0.005519	
4.49093	  0.008831	  0.007750	  0.005544	
4.52419	  0.008838	  0.007791	  0.005527	
4.55746	  0.008825	  0.007898	  0.005450	
4.59073	  0.008795	  0.008063	  0.005296	
4.62399	  0.008747	  0.008248	  0.005043	
4.65726	  0.008675	  0.008402	  0.004668	
4.69052	  0.008571	  0.008482	  0.004158	
4.72379	  0.008435	  0.008463	  0.003528	
4.75706	  0.008289	  0.008346	  0.002826	
4.79032	  0.008166	  0.008155	  0.002141	
4.82359	  0.008100	  0.007929	  0.001629	
4.85685	  0.008100	  0.007722	  0.001533	
4.89012	  0.008155	  0.007602	  0.002208	
4.92339	  0.008239	  0.007649	  0.004120	
4.95665	  0.008332	  0.007953	  0.007813	
4.98992	  0.008429	  0.008606	  0.013849	
5.02319	  0.008546	  0.009685	  0.022690	
5.05645	  0.008715	  0.011234	  0.034544	
5.08972	  0.008967	  0.013242	  0.049162	
5.12298	  0.009309	  0.015636	  0.065681	
5.15625	  0.009708	  0.018280	  0.082644	
5.18952	  0.010121	  0.021012	  0.098272	
5.22278	  0.010531	  0.023709	  0.111006	
5.25605	  0.010986	  0.026357	  0.120082	
5.28931	  0.011580	  0.029061	  0.125886	
5.32258	  0.012394	  0.031956	  0.129847	
5.35585	  0.013431	  0.035058	  0.133916	
5.38911	  0.014597	  0.038189	  0.139886	
5.42238	  0.015758	  0.041071	  0.148910	
5.45565	  0.016820	  0.043559	  0.161415	
5.48891	  0.017800	  0.045796	  0.177312	
5.52218	  0.018820	  0.048161	  0.196300	
5.55544	  0.020034	  0.051021	  0.218051	
5.58871	  0.021541	  0.054517	  0.242262	
5.62198	  0.023351	  0.058565	  0.268602	
5.65524	  0.025401	  0.063037	  0.296632	
5.68851	  0.027603	  0.067902	  0.325746	
5.72177	  0.029869	  0.073115	  0.355238	
5.75504	  0.032099	  0.078375	  0.384525	
5.78831	  0.034171	  0.083022	  0.413322	
5.82157	  0.035979	  0.086284	  0.441447	
5.85484	  0.037460	  0.087708	  0.468222	
5.8881	  0.038608	  0.087427	  0.492077	
5.92137	  0.039446	  0.086088	  0.511128	
5.95464	  0.040023	  0.084554	  0.524721	
5.9879	  0.040417	  0.083618	  0.534716	
6.02117	  0.040723	  0.083869	  0.545154	
6.05444	  0.041031	  0.085722	  0.560140	
6.0877	  0.041425	  0.089478	  0.581375	
6.12097	  0.042023	  0.095359	  0.607122	
6.15423	  0.043010	  0.103450	  0.633183	
6.1875	  0.044614	  0.113584	  0.654933	
6.22077	  0.046989	  0.125202	  0.669009	
6.25403	  0.050067	  0.137257	  0.674048	
6.2873	  0.053491	  0.148284	  0.670633	
6.32056	  0.056701	  0.156777	  0.660785	
6.35383	  0.059152	  0.161805	  0.647108	
6.3871	  0.060543	  0.163520	  0.631780	
6.42036	  0.060920	  0.163110	  0.615843	
6.45363	  0.060590	  0.162150	  0.599119	
6.4869	  0.059911	  0.161725	  0.580746	
6.52016	  0.059068	  0.161901	  0.560004	
6.55343	  0.057983	  0.161833	  0.537063	
6.58669	  0.056433	  0.160456	  0.513334	
6.61996	  0.054298	  0.157348	  0.491264	
6.65323	  0.051791	  0.153250	  0.473656	
6.68649	  0.049451	  0.149863	  0.462858	
6.71976	  0.047911	  0.148986	  0.460281	
6.75302	  0.047586	  0.151545	  0.466476	
6.78629	  0.048506	  0.157152	  0.481452	
6.81956	  0.050384	  0.164422	  0.504672	
6.85282	  0.052808	  0.171732	  0.534569	
6.88609	  0.055400	  0.177902	  0.568132	
6.91935	  0.057865	  0.182468	  0.601320	
6.95262	  0.059973	  0.185596	  0.630333	
6.98589	  0.061590	  0.187804	  0.652941	
7.01915	  0.062731	  0.189609	  0.668903	
7.05242	  0.063548	  0.191164	  0.679194	
7.08569	  0.064201	  0.192066	  0.684582	
7.11895	  0.064698	  0.191536	  0.684575	
7.15222	  0.064856	  0.188896	  0.677637	
7.18548	  0.064434	  0.184012	  0.662702	
7.21875	  0.063338	  0.177391	  0.640945	
7.25202	  0.061689	  0.169890	  0.616307	
7.28528	  0.059704	  0.162323	  0.594150	
7.31855	  0.057532	  0.155240	  0.578891	
7.35181	  0.055226	  0.148917	  0.572194	
7.38508	  0.052868	  0.143469	  0.572777	
7.41835	  0.050688	  0.138991	  0.577657	
7.45161	  0.049015	  0.135623	  0.583864	
7.48488	  0.048106	  0.133467	  0.589692	
7.51815	  0.048007	  0.132405	  0.595132	
7.55141	  0.048562	  0.132015	  0.601399	
7.58468	  0.049527	  0.131755	  0.609624	
7.61794	  0.050656	  0.131320	  0.619326	
7.65121	  0.051717	  0.130844	  0.627897	
7.68448	  0.052491	  0.130734	  0.631910	
7.71774	  0.052839	  0.131326	  0.629485	
7.75101	  0.052807	  0.132725	  0.621867	
7.78427	  0.052677	  0.135031	  0.613005	
7.81754	  0.052895	  0.138722	  0.607609	
7.85081	  0.053892	  0.144701	  0.609103	
7.88407	  0.055868	  0.153770	  0.618562	
7.91734	  0.058676	  0.165810	  0.634803	
7.9506	  0.061860	  0.179381	  0.655268	
7.98387	  0.064875	  0.192248	  0.677100	
8.01714	  0.067364	  0.202601	  0.697774	
8.0504	  0.069325	  0.210098	  0.714907	
8.08367	  0.071061	  0.215891	  0.725741	
8.11694	  0.072939	  0.221670	  0.727399	
8.1502	  0.075112	  0.228516	  0.718360	
8.18347	  0.077364	  0.236408	  0.700039	
8.21673	  0.079203	  0.244523	  0.676784	
8.25	  0.080120	  0.251825	  0.653967	
8.28327	  0.079876	  0.257454	  0.635606	
8.31653	  0.078612	  0.260844	  0.623348	
8.3498	  0.076753	  0.261808	  0.617128	
8.38306	  0.074826	  0.260678	  0.616447	
8.41633	  0.073316	  0.258278	  0.621068	
8.4496	  0.072577	  0.255540	  0.630951	
8.48286	  0.072740	  0.252881	  0.645970	
8.51613	  0.073633	  0.249859	  0.665763	
8.5494	  0.074830	  0.245483	  0.689515	
8.58266	  0.075867	  0.238963	  0.715376	
8.61593	  0.076460	  0.230286	  0.739842	
8.64919	  0.076567	  0.220195	  0.758071	
8.68246	  0.076278	  0.209751	  0.765610	
8.71573	  0.075692	  0.199960	  0.760644	
8.74899	  0.074907	  0.191704	  0.745003	
8.78226	  0.074091	  0.185778	  0.723093	
8.81552	  0.073494	  0.182840	  0.699646	
8.84879	  0.073367	  0.183247	  0.677994	
8.88206	  0.073845	  0.186935	  0.659720	
8.91532	  0.074899	  0.193412	  0.645210	
8.94859	  0.076388	  0.201887	  0.634223	
8.98185	  0.078165	  0.211515	  0.626178	
9.01512	  0.080150	  0.221631	  0.620442	
9.04839	  0.082308	  0.231765	  0.616843	
9.08165	  0.084580	  0.241458	  0.616163	
9.11492	  0.086865	  0.250233	  0.620130	
9.14819	  0.089100	  0.258001	  0.630675	
9.18145	  0.091348	  0.265529	  0.648937	
9.21472	  0.093776	  0.274278	  0.674703	
9.24798	  0.096533	  0.285373	  0.706491	
9.28125	  0.099618	  0.298465	  0.741655	
9.31452	  0.102817	  0.311532	  0.776203	
9.34778	  0.105723	  0.321858	  0.805026	
9.38105	  0.107837	  0.327400	  0.823430	
9.41431	  0.108759	  0.327565	  0.829455	
9.44758	  0.108434	  0.323067	  0.825140	
9.48085	  0.107272	  0.315298	  0.815486	
9.51411	  0.105962	  0.305712	  0.805692	
9.54738	  0.105018	  0.295414	  0.798573	
9.58065	  0.104396	  0.284973	  0.793805	
9.61391	  0.103496	  0.274547	  0.789285	
9.64718	  0.101588	  0.264337	  0.783262	
9.68044	  0.098335	  0.255007	  0.775454	
9.71371	  0.093992	  0.247589	  0.766508	
9.74698	  0.089191	  0.242778	  0.756825	
9.78024	  0.084536	  0.240215	  0.746142	
9.81351	  0.080341	  0.238511	  0.734124	
9.84677	  0.076687	  0.236178	  0.721107	
9.88004	  0.073606	  0.232760	  0.708269	
9.91331	  0.071186	  0.229188	  0.697332	
9.94657	  0.069509	  0.226992	  0.690166	
9.97984	  0.068538	  0.227039	  0.688251	
10.0131	  0.068116	  0.228875	  0.691950	
10.0464	  0.068060	  0.231248	  0.699966	
10.0796	  0.068293	  0.233296	  0.709539	
10.1129	  0.068896	  0.235347	  0.717559	
10.1462	  0.070091	  0.238700	  0.722080	
10.1794	  0.072177	  0.244687	  0.723362	
10.2127	  0.075394	  0.253790	  0.723712	
10.246	  0.079753	  0.265319	  0.726249	
10.2792	  0.084895	  0.277653	  0.733365	
10.3125	  0.090115	  0.288765	  0.745769	
10.3458	  0.094568	  0.296819	  0.762421	
10.379	  0.097550	  0.300653	  0.781156	
10.4123	  0.098685	  0.299999	  0.799549	
10.4456	  0.097965	  0.295309	  0.815569	
10.4788	  0.095661	  0.287317	  0.827738	
10.5121	  0.092167	  0.276644	  0.834821	
10.5454	  0.087838	  0.263725	  0.835396	
10.5786	  0.082908	  0.249026	  0.827711	
10.6119	  0.077526	  0.233223	  0.810061	
10.6452	  0.071857	  0.217103	  0.781577	
10.6784	  0.066100	  0.201230	  0.742847	
10.7117	  0.060386	  0.185675	  0.695791	
10.745	  0.054696	  0.170079	  0.642856	
10.7782	  0.048915	  0.154056	  0.586329	
10.8115	  0.043029	  0.137641	  0.528491	
10.8448	  0.037266	  0.121507	  0.472277	
